<svg width="32" height="32" viewBox="0 0 32 32" fill="none" xmlns="http://www.w3.org/2000/svg">
<path d="M22.9269 29.6683C22.7783 29.7425 19.942 30.9905 14.9258 30.7557C12.3125 30.6322 10.0459 30.1502 8.43583 29.7054L17.1181 19.6469C18.6663 20.0423 20.6603 20.413 22.9269 20.5242C27.943 20.7714 30.7793 19.511 30.9279 19.4368L22.9269 29.6807V29.6683ZM9.95924 10.3422C8.53491 5.53534 9.09226 2.49555 9.12941 2.33491L1.05406 12.517C1.02928 12.6776 0.471936 15.7174 1.88389 20.5242C2.62702 23.0203 3.63024 25.1086 4.44769 26.5667L12.1886 15.7792C11.4455 14.3705 10.6033 12.517 9.95924 10.3545V10.3422ZM30.0857 11.4049C28.9462 7.54951 27.1627 4.69507 26.432 3.60767L19.2484 12.7394L20.5984 19.202C21.4035 19.3133 22.1961 19.3874 23.0012 19.4368C23.4099 19.4492 23.8186 19.4615 24.215 19.4615C28.104 19.4615 30.2715 18.5471 30.5068 18.4359L31.0642 18.1888C31.1137 16.8542 31.027 14.4941 30.0981 11.3925L30.0857 11.4049ZM25.5774 2.95275C24.3512 2.49555 21.1558 1.44521 17.1305 1.2475C13.8978 1.08687 11.5817 1.55643 10.2937 1.92713L10.1822 2.52026C10.1574 2.64383 9.66199 5.52298 10.9872 10.0332C11.2102 10.7994 11.4827 11.5531 11.7799 12.3069L18.3938 12.0845L25.5898 2.96511L25.5774 2.95275Z" fill="url(#paint0_linear_1932_12927)"/>
<defs>
<linearGradient id="paint0_linear_1932_12927" x1="-5.91" y1="37.6188" x2="40.6126" y2="-20.6819" gradientUnits="userSpaceOnUse">
<stop offset="0.352132" stop-color="#DFFFB6"/>
<stop offset="1" stop-color="white" stop-opacity="0"/>
</linearGradient>
</defs>
</svg>
