<svg width="212" height="63" viewBox="0 0 212 63" fill="none" xmlns="http://www.w3.org/2000/svg">
<path d="M47.0056 59.0295C46.7023 59.1808 40.9154 61.7276 30.6809 61.2485C25.3489 60.9963 20.7244 60.0129 17.4393 59.1052L35.1538 38.5801C38.3126 39.387 42.3811 40.1435 47.0056 40.3704C57.24 40.8747 63.0269 38.3028 63.3302 38.1515L47.0056 59.0548V59.0295ZM20.5476 19.5932C17.6415 9.78453 18.7786 3.58162 18.8544 3.25382L2.3782 24.031C2.32766 24.3588 1.1905 30.5617 4.07131 40.3704C5.58753 45.4638 7.63443 49.7252 9.30227 52.7006L25.0962 30.6878C23.58 27.8133 21.8616 24.031 20.5476 19.6184V19.5932ZM61.6118 21.7617C59.2869 13.8946 55.648 8.0699 54.1571 5.85098L39.5003 24.4849L42.2547 37.6724C43.8973 37.8993 45.5146 38.0506 47.1572 38.1515C47.9911 38.1767 48.825 38.2019 49.6337 38.2019C57.5685 38.2019 61.9908 36.336 62.471 36.1091L63.6082 35.6047C63.7092 32.8815 63.5323 28.0654 61.6371 21.7365L61.6118 21.7617ZM52.4134 4.51458C49.9116 3.58162 43.3919 1.43834 35.1791 1.0349C28.5835 0.707102 23.858 1.66527 21.2299 2.42173L21.0024 3.63205C20.9519 3.8842 19.9411 9.75931 22.645 18.9628C23.0999 20.5261 23.6558 22.0643 24.2623 23.6024L37.7566 23.1485L52.4387 4.53979L52.4134 4.51458Z" fill="url(#paint0_linear_1262_15040)"/>
<path d="M101.572 41.3022C101.572 47.12 96.3801 50.7167 88.4935 50.7167C84.2715 50.7167 80.8595 49.965 77.5905 48.3592C77.9609 46.1752 78.1794 43.9684 78.2444 41.7546C81.2228 43.4592 84.5964 44.3622 88.0327 44.3747C91.9772 44.3747 94.0119 43.4596 94.0119 41.5643C94.0774 39.6672 92.6329 38.8176 86.7173 37.7046C79.8829 36.3357 76.8595 33.5235 76.8595 28.5557C76.8595 22.9354 82.0517 19.2713 89.9384 19.2713C93.2307 19.2362 96.4977 19.8462 99.553 21.0665L98.2317 27.3776C95.6266 26.2037 92.7979 25.6018 89.9379 25.6129C86.2579 25.6129 84.4181 26.528 84.4181 28.2986C84.4181 29.8694 85.6659 30.5219 91.4501 31.6978C98.8124 33.2628 101.572 36.0732 101.572 41.3022ZM118.877 43.7787C115.92 43.7787 113.552 42.2079 113.552 38.0932V26.5837H121.049L122.443 19.9158H113.553V10.4299C110.998 11.1492 108.378 11.6176 105.73 11.8284L105.667 39.4087C105.667 46.9261 110.201 50.7262 116.971 50.7262C118.323 50.735 119.673 50.5935 120.994 50.3043L122.472 43.2491C121.312 43.6253 120.096 43.8043 118.877 43.7787V43.7787ZM127.436 50.3007H135.323V19.9275H127.436V50.3007ZM131.412 7.50506C130.829 7.48949 130.249 7.58885 129.705 7.7974C129.161 8.00594 128.664 8.31954 128.243 8.7201C127.821 9.12066 127.484 9.60025 127.25 10.1312C127.016 10.6621 126.89 11.2339 126.879 11.8136C126.868 12.3932 126.973 12.9692 127.187 13.5083C127.402 14.0474 127.721 14.539 128.128 14.9547C128.534 15.3703 129.019 15.7019 129.555 15.9301C130.091 16.1584 130.667 16.2788 131.25 16.2845C133.813 16.2998 135.695 14.51 135.735 12.0209C135.767 11.4376 135.678 10.8541 135.474 10.3062C135.271 9.7582 134.957 9.25726 134.553 8.83403C134.148 8.41079 133.661 8.07415 133.12 7.84472C132.58 7.61528 131.999 7.49787 131.412 7.49967V7.50506ZM173.034 19.9333V45.551C173.034 55.2263 166.46 61.8942 155.353 61.8942C151.372 61.8942 146.957 61.0177 143.997 59.3333C145.6 57.7401 147.048 56.0002 148.323 54.1366C150.332 54.8204 152.441 55.1692 154.564 55.1689C161.596 55.1689 165.146 51.3092 165.146 46.4082V45.428C163.851 46.9152 162.245 48.1018 160.439 48.9039C158.634 49.706 156.673 50.104 154.696 50.07C146.414 50.07 140.17 43.9317 140.17 34.8394C140.17 25.8831 147.006 19.2808 155.354 19.2808C159.691 19.2808 163.437 20.8516 165.935 23.7926L166.197 19.9329L173.034 19.9333ZM165.21 34.8381C165.21 30.0004 161.662 26.3404 156.797 26.3404C151.933 26.3404 148.311 29.9977 148.311 34.8376C148.311 39.5429 151.862 43.2051 156.798 43.2051C157.91 43.2297 159.015 43.0299 160.048 42.6178C161.08 42.2057 162.017 41.5897 162.804 40.8072C163.59 40.0247 164.209 39.0918 164.623 38.0649C165.036 37.0379 165.236 35.9383 165.211 34.8322L165.21 34.8381ZM209.75 19.9279V45.5515C209.75 55.2268 203.177 61.8946 192.07 61.8946C188.089 61.8946 183.674 61.0181 180.715 59.3338C182.318 57.7405 183.766 56.0006 185.041 54.1371C187.049 54.8208 189.158 55.1696 191.28 55.1693C198.312 55.1693 201.863 51.3096 201.863 46.4087V45.4285C200.569 46.9165 198.963 48.1035 197.157 48.9057C195.351 49.7078 193.389 50.1055 191.412 50.0705C183.131 50.0705 176.886 43.9322 176.886 34.8399C176.886 25.8836 183.722 19.2812 192.07 19.2812C196.407 19.2812 200.155 20.852 202.652 23.793L202.915 19.9333L209.75 19.9279ZM201.929 34.8327C201.929 29.995 198.38 26.335 193.516 26.335C188.652 26.335 185.027 29.9941 185.027 34.8318C185.027 39.537 188.575 43.1993 193.513 43.1993C194.625 43.2252 195.731 43.0265 196.764 42.6152C197.796 42.2039 198.734 41.5885 199.521 40.8063C200.307 40.0241 200.926 39.0913 201.34 38.0644C201.754 37.0375 201.954 35.9378 201.928 34.8318L201.929 34.8327Z" fill="white"/>
<defs>
<linearGradient id="paint0_linear_1262_15040" x1="-11.8306" y1="75.253" x2="83.1045" y2="-43.7019" gradientUnits="userSpaceOnUse">
<stop offset="0.352132" stop-color="white"/>
<stop offset="1" stop-color="white" stop-opacity="0"/>
</linearGradient>
</defs>
</svg>
