<svg width="212" height="63" viewBox="0 0 212 63" fill="none" xmlns="http://www.w3.org/2000/svg">
<path d="M47.1131 59.079C46.8101 59.2301 41.0271 61.7751 30.7996 61.2964C25.4712 61.0444 20.8499 60.0617 17.567 59.1545L35.2694 38.6434C38.426 39.4498 42.4918 40.2057 47.1131 40.4325C57.3406 40.9364 63.1236 38.3663 63.4266 38.2151L47.1131 59.1042V59.079ZM20.6731 19.6694C17.769 9.8674 18.9054 3.66871 18.9811 3.34114L2.51609 24.1042C2.46558 24.4318 1.32919 30.6305 4.20805 40.4325C5.72323 45.5225 7.76874 49.7809 9.43544 52.7543L25.2187 30.7565C23.7035 27.8839 21.9862 24.1042 20.6731 19.6946V19.6694ZM61.7094 21.8364C59.3861 13.9747 55.7497 8.15394 54.2598 5.93653L39.6129 24.5578L42.3655 37.7363C44.007 37.9631 45.6232 38.1143 47.2646 38.2151C48.098 38.2403 48.9313 38.2655 49.7394 38.2655C57.6689 38.2655 62.0882 36.4008 62.568 36.174L63.7044 35.6701C63.8054 32.9487 63.6287 28.1359 61.7347 21.8112L61.7094 21.8364ZM52.5173 4.60103C50.0172 3.66871 43.5019 1.52689 35.2946 1.12372C28.7036 0.796147 23.9812 1.75367 21.3549 2.50961L21.1276 3.71911C21.0771 3.97109 20.067 9.8422 22.7691 19.0394C23.2237 20.6017 23.7792 22.1388 24.3853 23.6759L37.8705 23.2223L52.5425 4.62623L52.5173 4.60103Z" fill="url(#paint0_linear_1262_15008)"/>
<path d="M101.643 41.3638C101.643 47.1776 96.4543 50.7719 88.5729 50.7719C84.3538 50.7719 80.9442 50.0207 77.6774 48.4159C78.0476 46.2335 78.2659 44.0282 78.3309 41.8158C81.3072 43.5193 84.6786 44.4217 88.1125 44.4342C92.0543 44.4342 94.0877 43.5197 94.0877 41.6257C94.1531 39.7299 92.7095 38.8809 86.798 37.7686C79.9683 36.4007 76.9469 33.5904 76.9469 28.626C76.9469 23.0094 82.1356 19.3479 90.0169 19.3479C93.3069 19.3128 96.5717 19.9224 99.6249 21.1419L98.3045 27.4487C95.7013 26.2755 92.8744 25.674 90.0164 25.6852C86.3389 25.6852 84.5004 26.5996 84.5004 28.369C84.5004 29.9387 85.7473 30.5908 91.5276 31.7659C98.8849 33.3298 101.643 36.1383 101.643 41.3638ZM118.936 43.8386C115.981 43.8386 113.614 42.2688 113.614 38.157V26.6553H121.106L122.5 19.9919H113.616V10.5125C111.062 11.2312 108.444 11.6993 105.798 11.91L105.734 39.4715C105.734 46.9839 110.266 50.7813 117.031 50.7813C118.383 50.7902 119.731 50.6488 121.052 50.3597L122.528 43.3093C121.369 43.6853 120.155 43.8642 118.936 43.8386V43.8386ZM127.489 50.3562H135.371V20.0036H127.489V50.3562ZM131.462 7.5896C130.88 7.57405 130.3 7.67334 129.756 7.88174C129.213 8.09015 128.716 8.40353 128.295 8.80382C127.874 9.20411 127.537 9.68338 127.303 10.214C127.069 10.7445 126.943 11.3159 126.932 11.8952C126.922 12.4744 127.027 13.05 127.241 13.5888C127.455 14.1275 127.774 14.6188 128.18 15.0342C128.586 15.4495 129.071 15.7808 129.606 16.0089C130.142 16.237 130.717 16.3574 131.3 16.3631C133.861 16.3784 135.743 14.5898 135.783 12.1024C135.814 11.5195 135.725 10.9364 135.522 10.3888C135.319 9.84121 135.005 9.34062 134.601 8.91767C134.196 8.49472 133.709 8.15831 133.17 7.92903C132.63 7.69975 132.049 7.58242 131.462 7.58422V7.5896ZM173.056 20.0094V45.6097C173.056 55.2784 166.487 61.9418 155.387 61.9418C151.409 61.9418 146.997 61.0658 144.038 59.3826C145.64 57.7905 147.088 56.0518 148.362 54.1895C150.369 54.8728 152.477 55.2213 154.599 55.221C161.626 55.221 165.173 51.3639 165.173 46.4663V45.4868C163.88 46.973 162.274 48.1587 160.47 48.9603C158.665 49.7618 156.706 50.1596 154.73 50.1256C146.454 50.1256 140.215 43.9915 140.215 34.9054C140.215 25.9552 147.045 19.3573 155.388 19.3573C159.722 19.3573 163.466 20.927 165.962 23.8661L166.224 20.009L173.056 20.0094ZM165.238 34.904C165.238 30.0697 161.692 26.4122 156.83 26.4122C151.969 26.4122 148.35 30.067 148.35 34.9036C148.35 39.6056 151.899 43.2654 156.831 43.2654C157.942 43.29 159.047 43.0903 160.078 42.6785C161.11 42.2666 162.047 41.6511 162.833 40.8691C163.619 40.0871 164.237 39.1549 164.65 38.1286C165.064 37.1024 165.264 36.0035 165.238 34.8982L165.238 34.904ZM209.747 20.004V45.6101C209.747 55.2789 203.178 61.9422 192.079 61.9422C188.1 61.9422 183.689 61.0663 180.732 59.3831C182.334 57.7909 183.781 56.0522 185.055 54.1899C187.062 54.8732 189.169 55.2217 191.29 55.2215C198.317 55.2215 201.866 51.3644 201.866 46.4668V45.4873C200.573 46.9742 198.967 48.1605 197.162 48.9621C195.357 49.7637 193.397 50.1611 191.421 50.1261C183.147 50.1261 176.906 43.992 176.906 34.9058C176.906 25.9556 183.736 19.3577 192.079 19.3577C196.413 19.3577 200.158 20.9275 202.654 23.8665L202.916 20.0094L209.747 20.004ZM201.932 34.8987C201.932 30.0643 198.385 26.4068 193.524 26.4068C188.664 26.4068 185.041 30.0634 185.041 34.8978C185.041 39.5998 188.587 43.2596 193.521 43.2596C194.633 43.2855 195.738 43.0869 196.769 42.6758C197.801 42.2648 198.739 41.6499 199.525 40.8682C200.311 40.0865 200.929 39.1544 201.343 38.1282C201.756 37.102 201.956 36.003 201.93 34.8978L201.932 34.8987Z" fill="#1E1E1E"/>
<defs>
<linearGradient id="paint0_linear_1262_15008" x1="-11.6831" y1="75.2914" x2="83.1876" y2="-43.5827" gradientUnits="userSpaceOnUse">
<stop offset="0.352132" stop-color="#1E1E1E"/>
<stop offset="1" stop-color="#1E1E1E" stop-opacity="0"/>
</linearGradient>
</defs>
</svg>
